<svg width="40" height="40" viewBox="0 0 40 40" fill="none" xmlns="http://www.w3.org/2000/svg">
<path d="M36.6663 4.58398H3.33301C2.64967 4.58398 2.08301 4.01732 2.08301 3.33398C2.08301 2.65065 2.64967 2.08398 3.33301 2.08398H36.6663C37.3497 2.08398 37.9163 2.65065 37.9163 3.33398C37.9163 4.01732 37.3497 4.58398 36.6663 4.58398Z" fill="#00D614"/>
<path d="M27.7838 37.234C27.5671 37.6673 27.1171 37.9173 26.6671 37.9173C26.4838 37.9173 26.2838 37.8673 26.1171 37.784L20.0004 34.734L13.8838 37.784C13.7171 37.8673 13.5171 37.9173 13.3338 37.9173C12.8838 37.9173 12.4338 37.6673 12.2171 37.234C11.9004 36.6007 12.1504 35.8507 12.7838 35.5507L18.7504 32.5673V28.334H21.2504V32.5673L27.2171 35.5507C27.8504 35.8507 28.1004 36.6007 27.7838 37.234Z" fill="#00D614"/>
<path d="M5 3.33398V23.5007C5 26.6673 6.66667 28.334 9.83333 28.334H30.1667C33.3333 28.334 35 26.6673 35 23.5007V3.33398H5ZM28.3 14.3007L23.05 18.684C22.5667 19.084 21.95 19.2507 21.3667 19.1507C20.7667 19.0507 20.25 18.684 19.9333 18.1507L18.1833 15.234L13.3 19.3007C13.0667 19.5007 12.7833 19.584 12.5 19.584C12.15 19.584 11.7833 19.434 11.5333 19.134C11.0833 18.6006 11.1667 17.8173 11.7 17.3673L16.95 12.984C17.4333 12.584 18.05 12.4173 18.6333 12.5173C19.2333 12.6173 19.75 12.984 20.0667 13.5173L21.8167 16.434L26.7 12.3673C27.2333 11.9173 28.0167 12.0007 28.4667 12.534C28.9 13.0673 28.8333 13.8507 28.3 14.3007Z" fill="#00D614"/>
</svg>
